<svg enable-background="new 0 0 1000 1000" viewBox="0 0 1000 1000" xmlns="http://www.w3.org/2000/svg"><g stroke="#000" stroke-miterlimit="10"><path d="m970.71 829.29c39.05 39.05 39.05 102.37 0 141.42s-102.37 39.05-141.42 0l-294.29-289.46c-39.05-39.05 27.32-37.45 66.38-76.5s35.99-103.97 75.05-64.92z"/><path d="m850 425c0 234.72-190.28 425-425 425s-425-190.28-425-425 190.28-425 425-425 425 190.28 425 425zm-425-225c-124.26 0-225 100.74-225 225s100.74 225 225 225 225-100.74 225-225-100.74-225-225-225z"/></g></svg>