<svg enable-background="new 0 0 1000 1000" viewBox="0 0 1000 1000" xmlns="http://www.w3.org/2000/svg"><g stroke="#000" stroke-miterlimit="10"><path d="m200 900c0 55.23-44.77 100-100 100s-100-44.77-100-100v-483.12c0-55.23 44.77-100 100-100s100 44.77 100 100z"/><path d="m1000 900c0 55.23-44.77 100-100 100s-100-44.77-100-100v-253.62c0-55.23 44.77-100 100-100s100 44.77 100 100z"/><path d="m600 900c0 55.23-44.77 100-100 100s-100-44.77-100-100v-800c0-55.23 44.77-100 100-100s100 44.77 100 100z"/></g></svg>