<svg enable-background="new 0 0 1000 1000" viewBox="0 0 1000 1000" xmlns="http://www.w3.org/2000/svg"><g stroke="#000" stroke-miterlimit="10"><path d="m750 250c0 138.07-111.93 250-250 250s-250-111.93-250-250 111.93-250 250-250 250 111.93 250 250zm-250-124.93c-69 0-124.93 55.93-124.93 124.93s55.93 124.93 124.93 124.93 124.93-55.93 124.93-124.93-55.93-124.93-124.93-124.93z"/><path d="m173.03 998.59c-66.61 0-115.86 9.49-147.62-20.75-26.61-25.34-31.39-36.5-29-85.03 1.16-23.52 3.02-125.56 57.48-203.13 83.63-119.12 249.94-162.75 441.44-162.75h1.19c191.51 0 357.81 43.63 441.44 162.75 54.46 77.57 56.32 179.61 57.48 203.13 2.39 48.54-2.39 59.7-29 85.03-31.76 30.24-81.01 20.75-147.62 20.75zm637.46-110.5c17.93 0 31.99-27.55 30.08-45.38-17.4-162.19-166.16-186.93-346.67-186.93-180.51 0-329.26 24.74-346.67 186.93-1.91 17.83 12.15 45.38 30.08 45.38z"/></g></svg>